<svg width="500" height="250" viewBox="0 0 500 250" fill="none" xmlns="http://www.w3.org/2000/svg">
<g clip-path="url(#clip0)">
<rect x="175" y="50" width="150" height="150" rx="10" fill="#8EB5FF"/>
<path d="M193 149.632C182.6 149.632 174.667 144.645 172 142.151L171 202H329V141C327.167 143.877 322.3 149.977 317.5 151.358C311.5 153.085 299.5 143.302 290.5 142.151C281.5 141 274.5 149.632 265.5 151.358C256.5 153.085 245.5 142.151 226.5 142.151C207.5 142.151 206 149.632 193 149.632Z" fill="black" fill-opacity="0.11"/>
<circle cx="250" cy="93" r="10" fill="white"/>
<circle cx="216" cy="119" r="10" fill="white"/>
<circle cx="284" cy="119" r="10" fill="white"/>
<path d="M250 103V160" stroke="white" stroke-width="8" stroke-linecap="square" stroke-linejoin="round"/>
<path fill-rule="evenodd" clip-rule="evenodd" d="M250 157.169C266.569 157.169 280 144.856 280 129.667C280 128.424 279.91 127.2 279.736 126H287.661C287.885 127.539 288 129.11 288 130.706C288 150.198 270.763 166 249.5 166C228.237 166 211 150.198 211 130.706C211 129.11 211.115 127.539 211.339 126H220.264C220.09 127.2 220 128.424 220 129.667C220 144.856 233.431 157.169 250 157.169Z" fill="white"/>
<path d="M250 178L241.34 164.5H258.66L250 178Z" fill="white"/>
</g>
<defs>
<clipPath id="clip0">
<rect x="175" y="50" width="150" height="150" rx="10" fill="white"/>
</clipPath>
</defs>
</svg>
